<?xml version="1.0" standalone="no"?><!DOCTYPE svg PUBLIC "-//W3C//DTD SVG 1.1//EN" "http://www.w3.org/Graphics/SVG/1.1/DTD/svg11.dtd"><svg t="1767619955885" class="icon" viewBox="0 0 1024 1024" version="1.1" xmlns="http://www.w3.org/2000/svg" p-id="5871" xmlns:xlink="http://www.w3.org/1999/xlink" width="200" height="200"><path d="M42.542 736.988l667.672-23.842c48.968-101.374-1.156-185.012-1.156-185.012 129.56-36.516 198.464 108.856 219.372 129.762 4.124 4.188 24.876-19.906 24.876-19.906C900.21-201.6-208.702 91.55 42.542 736.988z" fill="#ED5564" p-id="5872"></path><path d="M1023.988 646.866c0 47.124-38.186 85.342-85.308 85.342-47.156 0-85.376-38.216-85.376-85.342 0-47.124 38.218-85.34 85.376-85.34 47.122 0 85.308 38.216 85.308 85.34zM767.996 736.05c0-25.686-20.812-46.498-46.468-46.498H46.496c-25.672 0-46.484 20.812-46.484 46.498v120.374c0 25.656 20.812 46.466 46.484 46.466h675.032c25.656 0 46.468-20.81 46.468-46.466v-120.374z" fill="#E6E9ED" p-id="5873"></path><path d="M639.998 831.768c-11.75 0-21.31 9.562-21.31 21.344v49.78h42.654v-49.78c0-11.782-9.532-21.344-21.344-21.344zM469.346 831.768c-11.782 0-21.326 9.562-21.326 21.344v49.78h42.654v-49.78c0-11.782-9.548-21.344-21.328-21.344zM298.678 831.768c-11.782 0-21.328 9.562-21.328 21.344v49.78h42.656v-49.78c0-11.782-9.548-21.344-21.328-21.344zM128.01 831.768c-11.782 0-21.328 9.562-21.328 21.344v49.78h42.672v-49.78c0-11.782-9.562-21.344-21.344-21.344z" fill="#CCD1D9" p-id="5874"></path></svg>